#N canvas 1590 56 611 665 10;
#X floatatom 170 293 5 0 0 0 - - -;
#X obj 172 351 snapshot~;
#X obj 246 316 metro 10;
#X obj 247 288 tgl 15 0 empty empty empty 17 7 0 10 -262144 -1 -1 1
1;
#X obj 247 201 loadbang;
#X obj 171 316 osc~;
#X msg 171 262 1;
#X obj 403 519 ../../../assets/rgb-control;
#X obj 168 455 s osc_amp;
#X obj 171 378 expr (0.5+($f1/2));
#X connect 0 0 5 0;
#X connect 1 0 9 0;
#X connect 2 0 1 0;
#X connect 3 0 2 0;
#X connect 4 0 3 0;
#X connect 4 0 6 0;
#X connect 5 0 1 0;
#X connect 6 0 0 0;
#X connect 9 0 8 0;
