#N canvas 1550 42 641 674 10;
#X obj 251 339 snapshot~;
#X obj 328 302 metro 10;
#X obj 328 274 tgl 15 0 empty empty empty 17 7 0 10 -262144 -1 -1 1
1;
#X obj 251 303 osc~;
#X obj 251 152 metro 2000;
#X obj 251 126 tgl 15 0 empty empty empty 17 7 0 10 -262144 -1 -1 1
1;
#X obj 251 176 tgl 15 0 empty empty empty 17 7 0 10 -262144 -1 -1 1
1;
#X obj 251 201 select 0 1;
#X msg 251 240 1;
#X msg 287 240 10;
#X obj 251 89 loadbang;
#X obj 443 611 ../../../assets/rgb-control;
#X obj 328 240 loadbang;
#X obj 118 517 s r_led;
#X obj 308 530 s g_led;
#X obj 367 530 s b_led;
#X floatatom 251 401 5 0 0 0 - - -;
#X obj 78 414 r mouseX;
#X obj 181 413 r width;
#X obj 78 444 expr ($f1/$f2)*255;
#X obj 323 452 expr ($f1/$f2)*255;
#X obj 323 420 r mouseY;
#X obj 428 419 r height;
#X obj 63 487 *;
#X obj 308 482 *;
#X obj 251 366 expr (0.5+($f1/2));
#X obj 62 547 s osc_amp;
#X obj 63 523 / 255;
#X obj 426 506 * 2;
#X obj 425 530 s osc_freq;
#X connect 0 0 25 0;
#X connect 1 0 0 0;
#X connect 2 0 1 0;
#X connect 3 0 0 0;
#X connect 4 0 6 0;
#X connect 5 0 4 0;
#X connect 6 0 7 0;
#X connect 7 0 8 0;
#X connect 7 1 9 0;
#X connect 8 0 3 0;
#X connect 9 0 3 0;
#X connect 10 0 5 0;
#X connect 12 0 2 0;
#X connect 16 0 23 0;
#X connect 16 0 24 0;
#X connect 17 0 19 0;
#X connect 18 0 19 1;
#X connect 19 0 23 1;
#X connect 20 0 24 1;
#X connect 21 0 20 0;
#X connect 22 0 20 1;
#X connect 23 0 13 0;
#X connect 23 0 27 0;
#X connect 24 0 14 0;
#X connect 24 0 15 0;
#X connect 24 0 28 0;
#X connect 25 0 16 0;
#X connect 27 0 26 0;
#X connect 28 0 29 0;
