#N canvas 1732 341 625 364 10;
#X floatatom 196 102 5 0 0 0 - - -;
#X obj 198 160 snapshot~;
#X obj 197 125 phasor~ 1;
#X obj 272 125 metro 10;
#X obj 273 97 tgl 15 0 empty empty empty 17 7 0 10 -262144 -1 -1 1
1;
#X obj 273 10 loadbang;
#X msg 195 54 1;
#X obj 429 328 ../../../assets/rgb-control;
#X obj 193 234 s osc_amp;
#X connect 0 0 2 0;
#X connect 1 0 8 0;
#X connect 2 0 1 0;
#X connect 3 0 1 0;
#X connect 4 0 3 0;
#X connect 5 0 4 0;
#X connect 5 0 6 0;
#X connect 6 0 0 0;
