#N canvas 1646 108 475 560 10;
#X obj 82 325 s r_led;
#X obj 143 326 s g_led;
#X obj 202 326 s b_led;
#X floatatom 144 269 5 0 0 0 - - -;
#X obj 145 233 random 256;
#X obj 145 200 metro 10;
#X obj 145 142 loadbang;
#X obj 145 174 tgl 15 0 empty empty empty 17 7 0 10 -262144 -1 -1 1
1;
#X obj 293 397 ../../../assets/rgb-control;
#X connect 3 0 1 0;
#X connect 3 0 2 0;
#X connect 3 0 0 0;
#X connect 4 0 3 0;
#X connect 5 0 4 0;
#X connect 6 0 7 0;
#X connect 7 0 5 0;
