#N canvas 1646 108 475 560 10;
#X obj 85 377 s r_led;
#X obj 146 378 s g_led;
#X obj 205 378 s b_led;
#X obj 264 441 ../../../assets/rgb-control;
#X obj 143 102 counter;
#X floatatom 142 179 5 0 0 0 - - -;
#X obj 143 126 % 3;
#X obj 142 151 + 1;
#X obj 145 260 gate 3;
#X msg 85 304 \$1 0 0;
#X msg 206 305 0 0 \$1;
#X msg 147 305 0 \$1 0;
#X obj 85 339 unpack f f f;
#X obj 142 55 r keyPressed;
#X obj 232 179 r mouseX;
#X obj 337 178 r width;
#X obj 193 195 bng 15 250 50 0 empty empty empty 17 7 0 10 -262144
-1 -1;
#X obj 232 209 expr (1-($f1/$f2))*255;
#X connect 4 0 6 0;
#X connect 5 0 8 0;
#X connect 5 0 16 0;
#X connect 6 0 7 0;
#X connect 7 0 5 0;
#X connect 8 0 9 0;
#X connect 8 1 11 0;
#X connect 8 2 10 0;
#X connect 9 0 12 0;
#X connect 10 0 12 0;
#X connect 11 0 12 0;
#X connect 12 0 0 0;
#X connect 12 1 1 0;
#X connect 12 2 2 0;
#X connect 13 0 4 0;
#X connect 14 0 17 0;
#X connect 15 0 17 1;
#X connect 16 0 17 0;
#X connect 17 0 8 1;
