#N canvas 2275 473 924 519 10;
#X obj 220 379 s r_led;
#X obj 281 380 s g_led;
#X obj 340 380 s b_led;
#X floatatom 254 342 5 0 255 0 - - -;
#X floatatom 313 348 5 0 255 0 - - -;
#X floatatom 369 349 5 0 255 0 - - -;
#X floatatom 309 311 5 0 0 0 - - -;
#X floatatom 307 199 5 0 0 0 - - -;
#X obj 309 257 snapshot~;
#X obj 308 222 phasor~ 1;
#X floatatom 368 318 5 0 0 0 - - -;
#X obj 383 222 metro 10;
#X obj 384 194 tgl 15 0 empty empty empty 17 7 0 10 -262144 -1 -1 1
1;
#X obj 308 284 * 255;
#X obj 384 107 loadbang;
#X msg 306 151 -1;
#X obj 512 428 ../../../assets/rgb-control;
#X obj 273 -6 r mouseClicked;
#X msg 273 149 1;
#X obj 274 50 counter;
#X obj 274 21 select 1;
#X obj 274 77 % 2;
#X obj 274 107 select 0 1;
#X floatatom 232 82 5 0 0 0 - - -;
#X connect 3 0 0 0;
#X connect 4 0 1 0;
#X connect 5 0 2 0;
#X connect 6 0 1 0;
#X connect 6 0 2 0;
#X connect 6 0 0 0;
#X connect 7 0 9 0;
#X connect 8 0 13 0;
#X connect 9 0 8 0;
#X connect 11 0 8 0;
#X connect 12 0 11 0;
#X connect 13 0 6 0;
#X connect 14 0 12 0;
#X connect 14 0 15 0;
#X connect 15 0 7 0;
#X connect 17 0 20 0;
#X connect 18 0 7 0;
#X connect 19 0 21 0;
#X connect 19 0 23 0;
#X connect 20 0 19 0;
#X connect 21 0 22 0;
#X connect 22 0 18 0;
#X connect 22 1 15 0;
