#N canvas 1590 56 538 459 10;
#X msg 180 245 0;
#X obj 293 368 ../../../assets/rgb-control;
#X obj 180 138 r mouseClicked;
#X obj 180 166 select 1;
#X obj 180 193 tgl 15 0 empty empty empty 17 7 0 10 -262144 -1 -1 0
1;
#X obj 180 284 s osc_amp;
#X msg 212 244 440;
#X obj 180 221 select 0 1;
#X connect 0 0 5 0;
#X connect 2 0 3 0;
#X connect 3 0 4 0;
#X connect 4 0 7 0;
#X connect 6 0 5 0;
#X connect 7 0 0 0;
#X connect 7 1 6 0;
