#N canvas 1646 108 475 560 10;
#X obj 264 441 ../../../assets/rgb-control;
#X obj 143 102 counter;
#X floatatom 142 179 5 0 0 0 - - -;
#X obj 143 126 % 3;
#X obj 142 151 + 1;
#X obj 142 55 r keyPressed;
#X obj 201 217 r mouseX;
#X obj 306 216 r width;
#X obj 140 222 bng 15 250 50 0 empty empty empty 17 7 0 10 -262144
-1 -1;
#X obj 239 54 loadbang;
#X obj 200 280 s osc_amp;
#X obj 70 208 * 220;
#X obj 69 232 s osc_freq;
#X obj 201 247 expr (1-($f1/$f2));
#X connect 1 0 3 0;
#X connect 2 0 8 0;
#X connect 3 0 4 0;
#X connect 3 0 11 0;
#X connect 4 0 2 0;
#X connect 5 0 1 0;
#X connect 6 0 13 0;
#X connect 7 0 13 1;
#X connect 8 0 13 0;
#X connect 9 0 1 0;
#X connect 11 0 12 0;
#X connect 13 0 10 0;
