#N canvas 1495 23 801 395 10;
#X obj 225 174 s r_led;
#X obj 423 167 s g_led;
#X obj 482 167 s b_led;
#X obj 562 303 ../../../assets/rgb-control;
#X obj 152 102 r mouseX;
#X obj 257 101 r width;
#X obj 152 130 expr ($f1/$f2)*255;
#X obj 334 128 expr ($f1/$f2)*255;
#X obj 334 98 r mouseY;
#X obj 439 98 r height;
#X obj 151 209 s osc_amp;
#X obj 152 185 / 255;
#X obj 334 208 s osc_freq;
#X obj 335 184 * 660;
#X obj 334 163 / 255;
#X connect 4 0 6 0;
#X connect 5 0 6 1;
#X connect 6 0 0 0;
#X connect 6 0 11 0;
#X connect 7 0 1 0;
#X connect 7 0 2 0;
#X connect 7 0 14 0;
#X connect 8 0 7 0;
#X connect 9 0 7 1;
#X connect 11 0 10 0;
#X connect 13 0 12 0;
#X connect 14 0 13 0;
