#N canvas 2275 473 716 455 10;
#X floatatom 307 199 5 0 0 0 - - -;
#X obj 308 258 snapshot~;
#X obj 308 222 phasor~ 1;
#X obj 383 222 metro 10;
#X obj 384 194 tgl 15 0 empty empty empty 17 7 0 10 -262144 -1 -1 1
1;
#X obj 384 107 loadbang;
#X msg 306 151 -1;
#X obj 453 383 ../../../assets/rgb-control;
#X msg 273 149 1;
#X obj 274 50 counter;
#X obj 274 77 % 2;
#X obj 274 107 select 0 1;
#X obj 274 24 r keyPressed;
#X obj 130 277 r mouseX;
#X obj 233 276 r width;
#X obj 309 335 s osc_amp;
#X obj 127 338 s osc_freq;
#X obj 133 307 expr ($f1/$f2)*660;
#X connect 0 0 2 0;
#X connect 1 0 15 0;
#X connect 2 0 1 0;
#X connect 3 0 1 0;
#X connect 4 0 3 0;
#X connect 5 0 4 0;
#X connect 5 0 6 0;
#X connect 6 0 0 0;
#X connect 8 0 0 0;
#X connect 9 0 10 0;
#X connect 10 0 11 0;
#X connect 11 0 8 0;
#X connect 11 1 6 0;
#X connect 12 0 9 0;
#X connect 13 0 17 0;
#X connect 14 0 17 1;
#X connect 17 0 16 0;
