#N canvas 2377 164 667 778 10;
#X obj 117 328 snapshot~;
#X obj 191 293 metro 10;
#X obj 192 265 tgl 15 0 empty empty empty 17 7 0 10 -262144 -1 -1 1
1;
#X obj 120 293 osc~;
#X obj 119 173 select 0 1;
#X msg 119 229 1;
#X msg 155 229 10;
#X obj 345 661 ../../../assets/rgb-control;
#X obj 189 231 loadbang;
#X obj 119 110 counter;
#X obj 119 134 % 2;
#X obj 195 80 loadbang;
#X obj 119 50 r keyPressed;
#X floatatom 114 407 5 0 0 0 - - -;
#X obj 162 412 r mouseX;
#X obj 265 411 r width;
#X obj 346 420 r mouseY;
#X obj 449 419 r height;
#X obj 116 355 expr (0.5+($f1/2));
#X obj 114 502 s osc_amp;
#X obj 348 501 s osc_freq;
#X obj 352 462 expr ($f1/$f2)*660;
#X obj 114 468 *;
#X obj 165 442 expr ($f1/$f2);
#X connect 0 0 18 0;
#X connect 1 0 0 0;
#X connect 2 0 1 0;
#X connect 3 0 0 0;
#X connect 4 0 5 0;
#X connect 4 1 6 0;
#X connect 5 0 3 0;
#X connect 6 0 3 0;
#X connect 8 0 2 0;
#X connect 9 0 10 0;
#X connect 10 0 4 0;
#X connect 11 0 9 0;
#X connect 12 0 9 0;
#X connect 13 0 22 0;
#X connect 14 0 23 0;
#X connect 15 0 23 1;
#X connect 16 0 21 0;
#X connect 17 0 21 1;
#X connect 18 0 13 0;
#X connect 21 0 20 0;
#X connect 22 0 19 0;
#X connect 23 0 22 1;
