#N canvas 1590 56 770 722 10;
#X floatatom 224 353 5 0 0 0 - - -;
#X obj 286 313 random 256;
#X obj 225 284 select 0;
#X msg 225 309 0;
#X obj 409 631 ../../../assets/rgb-control;
#X obj 69 114 r mouseClicked;
#X obj 69 159 select 1;
#X obj 248 143 bng 15 250 50 0 empty empty empty 17 7 0 10 -262144
-1 -1;
#X obj 352 93 r mouseX;
#X obj 463 95 r width;
#X obj 248 224 tgl 15 0 empty empty empty 17 7 0 10 -262144 -1 -1 0
1;
#X obj 352 130 expr ($f1/$f2)*1000;
#X msg 248 183 1;
#X obj 287 186 delay;
#X msg 287 207 0;
#X obj 69 532 s r_led;
#X obj 130 533 s g_led;
#X obj 189 533 s b_led;
#X obj 68 225 counter;
#X floatatom 67 302 5 0 0 0 - - -;
#X obj 68 249 % 3;
#X obj 67 274 + 1;
#X obj 69 422 gate 3;
#X msg 69 459 \$1 0 0;
#X msg 190 460 0 0 \$1;
#X msg 131 460 0 \$1 0;
#X obj 69 494 unpack f f f;
#X obj 248 94 r keyPressed;
#X obj 148 177 loadbang;
#X obj 286 284 metro;
#X obj 279 454 s osc_amp;
#X obj 280 430 / 255;
#X obj -16 306 s osc_freq;
#X obj -15 282 * 220;
#X connect 0 0 22 1;
#X connect 0 0 31 0;
#X connect 1 0 0 0;
#X connect 2 0 3 0;
#X connect 3 0 0 0;
#X connect 5 0 6 0;
#X connect 6 0 18 0;
#X connect 7 0 12 0;
#X connect 7 0 13 0;
#X connect 8 0 11 0;
#X connect 9 0 11 1;
#X connect 10 0 2 0;
#X connect 10 0 29 0;
#X connect 11 0 13 1;
#X connect 12 0 10 0;
#X connect 13 0 14 0;
#X connect 14 0 10 0;
#X connect 18 0 20 0;
#X connect 19 0 22 0;
#X connect 20 0 21 0;
#X connect 20 0 33 0;
#X connect 21 0 19 0;
#X connect 22 0 23 0;
#X connect 22 1 25 0;
#X connect 22 2 24 0;
#X connect 23 0 26 0;
#X connect 24 0 26 0;
#X connect 25 0 26 0;
#X connect 26 0 15 0;
#X connect 26 1 16 0;
#X connect 26 2 17 0;
#X connect 27 0 7 0;
#X connect 28 0 18 0;
#X connect 29 0 1 0;
#X connect 31 0 30 0;
#X connect 33 0 32 0;
