#N canvas 643 34 450 300 10;
#X obj 60 26 dumpOSC 12000;
#X obj 275 225 rgb-control;
#X obj 59 60 route /background/;
#X obj 59 94 unpack f f f;
#X obj 206 93 unpack f f;
#X obj 147 205 s b_led;
#X obj 102 179 s g_led;
#X obj 60 153 s r_led;
#X obj 207 157 s osc_freq;
#X obj 261 182 s osc_amp;
#X obj 206 58 route /sinewave/;
#X obj 14 59 print;
#X connect 0 0 2 0;
#X connect 0 0 10 0;
#X connect 0 0 11 0;
#X connect 2 0 3 0;
#X connect 3 0 7 0;
#X connect 3 1 6 0;
#X connect 3 2 5 0;
#X connect 4 0 8 0;
#X connect 4 1 9 0;
#X connect 10 0 4 0;
