#N canvas 2400 66 990 509 10;
#X obj 94 322 gemwin;
#N canvas 1683 544 589 348 gemwin 0;
#X obj 137 197 gemwin;
#X obj 67 89 outlet;
#X obj 67 10 inlet;
#X obj 67 41 route create;
#X msg 67 70 set destroy;
#X msg 142 68 set create;
#X msg 202 195 destroy;
#X msg 290 8 border 0;
#X msg 293 36 fullscreen 2;
#X msg 301 100 create;
#X msg 356 100 1;
#X msg 249 9 reset;
#X msg 364 12 menubar 0;
#X msg 130 247 reset \, border 0 \, cursor 0 \, menubar 0 \, fullscreen
2 \, create \, 1;
#X msg 51 164 cursor 0;
#X msg 131 293 reset \, offset 1024 0 \, dimen 800 600 \, create \,
1;
#X msg 139 138 reset \, border 0 \, cursor 0 \, menubar 0 \, fullscreen
2 \, create \, 1;
#X connect 2 0 3 0;
#X connect 3 0 4 0;
#X connect 3 0 16 0;
#X connect 3 1 5 0;
#X connect 3 1 6 0;
#X connect 4 0 1 0;
#X connect 5 0 1 0;
#X connect 6 0 0 0;
#X connect 7 0 0 0;
#X connect 8 0 0 0;
#X connect 9 0 0 0;
#X connect 10 0 0 0;
#X connect 11 0 0 0;
#X connect 12 0 0 0;
#X connect 14 0 0 0;
#X connect 16 0 0 0;
#X restore 231 435 pd gemwin;
#X msg 267 408 create;
#X obj 92 238 pack \$1 \$2 \$3;
#X floatatom 82 155 5 0 0 0 - - -;
#X floatatom 131 155 5 0 0 0 - - -;
#X floatatom 188 158 5 0 0 0 - - -;
#X msg 94 278 color \$1 \$2 \$3;
#X obj 205 191 t b;
#X obj 150 187 t b;
#X obj 80 119 / 255;
#X obj 134 119 / 255;
#X obj 187 119 / 255;
#X floatatom 80 94 5 0 255 0 - - -;
#X floatatom 133 92 5 0 255 0 - - -;
#X floatatom 185 97 5 0 255 0 - - -;
#X obj 78 47 r r_led;
#X obj 193 49 r b_led;
#X obj 131 51 r g_led;
#X obj 249 341 loadbang;
#X msg 249 368 create;
#X obj 608 144 tgl 15 0 empty empty empty 17 7 0 10 -262144 -1 -1 0
1;
#X obj 631 231 s mouseX;
#X floatatom 638 146 5 0 0 0 - - -;
#X floatatom 681 146 5 0 0 0 - - -;
#X obj 679 257 s mouseY;
#X text 96 14 controls the screen;
#X obj 805 135 s keyPressed;
#X obj 894 137 s key;
#X text 800 43 sends keyboard events;
#X text 351 5 controls the audio;
#X obj 342 223 dac~;
#X msg 462 374 \; pd dsp 1;
#X obj 461 330 loadbang;
#X text 457 298 inits dsp;
#X obj 351 183 *~;
#X obj 419 70 clip 0 1;
#X obj 418 119 line~;
#X floatatom 367 73 5 0 0 0 - - -;
#X floatatom 481 70 5 0 0 0 - - -;
#X obj 609 198 s mouseClicked;
#X text 245 300 create/destroy window;
#X obj 570 367 screensize;
#X obj 581 312 loadbang;
#X floatatom 569 418 5 0 0 0 - - -;
#X floatatom 626 417 5 0 0 0 - - -;
#X obj 570 445 s width;
#X obj 625 443 s height;
#X obj 584 336 tgl 15 0 empty empty empty 17 7 0 10 -262144 -1 -1 1
1;
#X obj 595 38 gemmouse 1 1;
#X obj 647 79 r width;
#X obj 699 81 r height;
#X obj 633 110 *;
#X obj 676 110 *;
#X text 601 11 sends mouse events;
#X obj 642 376 metro 1000;
#X obj 807 87 gemkeyboard;
#X floatatom 838 112 5 0 0 0 - - -;
#X obj 782 113 bng 15 250 50 0 empty empty empty 17 7 0 10 -262144
-1 -1;
#X obj 352 45 r osc_freq;
#X obj 420 40 r osc_amp;
#X obj 409 151 loadbang;
#X msg 410 175 1;
#X obj 351 140 osc~ 440;
#X msg 417 96 \$1 3;
#X obj 940 142 print;
#X obj 909 203 select 53;
#X obj 908 243 s destroy;
#X obj 305 376 r destroy;
#X obj 605 62 clip 0 1;
#X obj 678 58 clip 0 1;
#X connect 1 0 2 0;
#X connect 2 0 1 0;
#X connect 3 0 7 0;
#X connect 4 0 3 0;
#X connect 5 0 3 1;
#X connect 5 0 9 0;
#X connect 6 0 3 2;
#X connect 6 0 8 0;
#X connect 7 0 0 0;
#X connect 8 0 3 0;
#X connect 9 0 3 0;
#X connect 10 0 4 0;
#X connect 11 0 5 0;
#X connect 12 0 6 0;
#X connect 13 0 10 0;
#X connect 14 0 11 0;
#X connect 15 0 12 0;
#X connect 16 0 13 0;
#X connect 17 0 15 0;
#X connect 18 0 14 0;
#X connect 20 0 1 0;
#X connect 21 0 40 0;
#X connect 23 0 22 0;
#X connect 24 0 25 0;
#X connect 33 0 32 0;
#X connect 35 0 31 0;
#X connect 35 0 31 1;
#X connect 36 0 64 0;
#X connect 37 0 35 1;
#X connect 42 0 44 0;
#X connect 42 1 45 0;
#X connect 43 0 48 0;
#X connect 43 0 42 0;
#X connect 44 0 46 0;
#X connect 45 0 47 0;
#X connect 48 0 55 0;
#X connect 49 0 69 0;
#X connect 49 1 70 0;
#X connect 49 2 21 0;
#X connect 50 0 52 1;
#X connect 51 0 53 1;
#X connect 52 0 23 0;
#X connect 53 0 24 0;
#X connect 55 0 44 0;
#X connect 55 0 45 0;
#X connect 56 0 27 0;
#X connect 56 0 57 0;
#X connect 56 0 58 0;
#X connect 56 0 66 0;
#X connect 57 0 28 0;
#X connect 57 0 65 0;
#X connect 59 0 38 0;
#X connect 59 0 63 0;
#X connect 60 0 36 0;
#X connect 60 0 39 0;
#X connect 61 0 62 0;
#X connect 62 0 35 1;
#X connect 63 0 35 0;
#X connect 64 0 37 0;
#X connect 66 0 67 0;
#X connect 68 0 2 0;
#X connect 69 0 52 0;
#X connect 70 0 53 0;
