#N canvas 1663 179 890 596 10;
#X obj 238 433 s r_led;
#X obj 349 441 s g_led;
#X obj 408 441 s b_led;
#X floatatom 319 301 5 0 0 0 - - -;
#X obj 319 88 line;
#X msg 368 42 0 1000;
#X obj 247 263 bng 15 250 50 0 empty empty empty 17 7 0 10 -262144
-1 -1;
#X obj 334 171 bng 15 250 50 0 empty empty empty 17 7 0 10 -262144
-1 -1;
#X obj 368 169 bng 15 250 50 0 empty empty empty 17 7 0 10 -262144
-1 -1;
#X obj 334 118 change;
#X obj 247 19 loadbang;
#X obj 575 551 ../../../assets/rgb-control;
#X obj 334 245 delay 2000;
#X msg 247 48 1 1000;
#X obj 148 298 r mouseX;
#X obj 253 297 r width;
#X obj 148 328 expr ($f1/$f2)*255;
#X obj 421 327 expr ($f1/$f2)*255;
#X obj 421 293 r mouseY;
#X obj 526 292 r height;
#X obj 148 379 *;
#X obj 348 393 *;
#X obj 334 143 select 0 1;
#X obj 334 196 t b b;
#X obj 391 220 random 2000;
#X obj 148 440 s osc_amp;
#X obj 149 416 / 255;
#X obj 533 440 s osc_freq;
#X obj 534 416 * 2;
#X obj 226 361 bng 15 250 50 0 empty empty empty 17 7 0 10 -262144
-1 -1;
#X obj 319 353 bng 15 250 50 0 empty empty empty 17 7 0 10 -262144
-1 -1;
#X connect 3 0 20 1;
#X connect 3 0 21 1;
#X connect 3 0 29 0;
#X connect 3 0 30 0;
#X connect 4 0 3 0;
#X connect 4 0 9 0;
#X connect 5 0 4 0;
#X connect 6 0 13 0;
#X connect 7 0 23 0;
#X connect 8 0 5 0;
#X connect 9 0 22 0;
#X connect 10 0 13 0;
#X connect 12 0 6 0;
#X connect 13 0 4 0;
#X connect 14 0 16 0;
#X connect 15 0 16 1;
#X connect 16 0 20 0;
#X connect 17 0 21 0;
#X connect 17 0 28 0;
#X connect 18 0 17 0;
#X connect 19 0 17 1;
#X connect 20 0 0 0;
#X connect 20 0 26 0;
#X connect 21 0 1 0;
#X connect 21 0 2 0;
#X connect 22 0 7 0;
#X connect 22 1 8 0;
#X connect 23 0 12 0;
#X connect 23 1 24 0;
#X connect 24 0 12 1;
#X connect 26 0 25 0;
#X connect 28 0 27 0;
#X connect 29 0 20 0;
#X connect 30 0 21 0;
