#N canvas 2283 266 549 572 10;
#X obj 124 427 s r_led;
#X obj 185 428 s g_led;
#X obj 244 428 s b_led;
#X obj 311 511 ../../../assets/rgb-control;
#X obj 183 113 counter;
#X floatatom 182 190 5 0 0 0 - - -;
#X obj 183 137 % 3;
#X obj 182 162 + 1;
#X obj 184 310 gate 3;
#X msg 124 354 \$1 0 0;
#X msg 245 355 0 0 \$1;
#X msg 186 355 0 \$1 0;
#X obj 124 389 unpack f f f;
#X obj 182 66 r keyPressed;
#X obj 342 190 r mouseX;
#X obj 447 189 r width;
#X obj 303 206 bng 15 250 50 0 empty empty empty 17 7 0 10 -262144
-1 -1;
#X obj 213 274 random;
#X obj 213 253 metro 10;
#X obj 213 215 loadbang;
#X obj 212 237 tgl 15 0 empty empty empty 17 7 0 10 -262144 -1 -1 1
1;
#X obj 263 65 loadbang;
#X obj 342 220 expr ($f1/$f2)*255;
#X obj 334 427 s osc_amp;
#X obj 335 403 / 255;
#X obj 95 212 s osc_freq;
#X obj 96 188 * 220;
#X connect 4 0 6 0;
#X connect 5 0 8 0;
#X connect 5 0 16 0;
#X connect 6 0 7 0;
#X connect 6 0 26 0;
#X connect 7 0 5 0;
#X connect 8 0 9 0;
#X connect 8 1 11 0;
#X connect 8 2 10 0;
#X connect 9 0 12 0;
#X connect 10 0 12 0;
#X connect 11 0 12 0;
#X connect 12 0 0 0;
#X connect 12 1 1 0;
#X connect 12 2 2 0;
#X connect 13 0 4 0;
#X connect 14 0 22 0;
#X connect 15 0 22 1;
#X connect 16 0 22 0;
#X connect 17 0 8 1;
#X connect 17 0 24 0;
#X connect 18 0 17 0;
#X connect 19 0 20 0;
#X connect 20 0 18 0;
#X connect 21 0 4 0;
#X connect 22 0 17 1;
#X connect 24 0 23 0;
#X connect 26 0 25 0;
