#N canvas 1590 56 605 601 10;
#X obj 104 371 s r_led;
#X obj 165 372 s g_led;
#X obj 224 372 s b_led;
#X floatatom 166 315 5 0 0 0 - - -;
#X obj 166 254 snapshot~;
#X obj 241 219 metro 10;
#X obj 241 191 tgl 15 0 empty empty empty 17 7 0 10 -262144 -1 -1 1
1;
#X obj 241 164 loadbang;
#X obj 166 219 osc~;
#X obj 166 281 expr (0.5+($f1/2)) * 255;
#X obj 403 519 ../../../assets/rgb-control;
#X obj 166 105 r mouseX;
#X obj 275 112 r width;
#X obj 166 136 expr ($f1/$f2)*3;
#X obj 283 372 s osc_amp;
#X obj 284 348 / 255;
#X connect 3 0 1 0;
#X connect 3 0 2 0;
#X connect 3 0 0 0;
#X connect 4 0 9 0;
#X connect 5 0 4 0;
#X connect 6 0 5 0;
#X connect 7 0 6 0;
#X connect 8 0 4 0;
#X connect 9 0 3 0;
#X connect 9 0 15 0;
#X connect 11 0 13 0;
#X connect 12 0 13 1;
#X connect 13 0 8 0;
#X connect 15 0 14 0;
