#N canvas 2377 164 667 778 10;
#X obj 219 296 snapshot~;
#X obj 293 261 metro 10;
#X obj 294 233 tgl 15 0 empty empty empty 17 7 0 10 -262144 -1 -1 1
1;
#X obj 222 261 osc~;
#X obj 221 141 select 0 1;
#X msg 221 197 1;
#X msg 257 197 10;
#X obj 447 629 ../../../assets/rgb-control;
#X obj 291 199 loadbang;
#X obj 221 78 counter;
#X obj 221 102 % 2;
#X obj 297 48 loadbang;
#X obj 221 18 r keyPressed;
#X obj 108 510 s r_led;
#X obj 169 511 s g_led;
#X obj 228 511 s b_led;
#X floatatom 216 375 5 0 0 0 - - -;
#X obj 40 372 r mouseX;
#X obj 143 371 r width;
#X obj 43 402 expr ($f1/$f2)*255;
#X obj 304 411 expr ($f1/$f2)*255;
#X obj 298 369 r mouseY;
#X obj 401 368 r height;
#X obj 45 453 *;
#X obj 273 456 *;
#X obj 218 323 expr (0.5+($f1/2));
#X connect 0 0 25 0;
#X connect 1 0 0 0;
#X connect 2 0 1 0;
#X connect 3 0 0 0;
#X connect 4 0 5 0;
#X connect 4 1 6 0;
#X connect 5 0 3 0;
#X connect 6 0 3 0;
#X connect 8 0 2 0;
#X connect 9 0 10 0;
#X connect 10 0 4 0;
#X connect 11 0 9 0;
#X connect 12 0 9 0;
#X connect 16 0 23 0;
#X connect 16 0 24 0;
#X connect 17 0 19 0;
#X connect 18 0 19 1;
#X connect 19 0 23 1;
#X connect 20 0 24 1;
#X connect 21 0 20 0;
#X connect 22 0 20 1;
#X connect 23 0 13 0;
#X connect 24 0 14 0;
#X connect 24 0 15 0;
#X connect 25 0 16 0;
