#N canvas 1646 108 475 560 10;
#X obj 82 398 s r_led;
#X obj 143 399 s g_led;
#X obj 202 399 s b_led;
#X floatatom 208 254 5 0 0 0 - - -;
#X obj 208 232 random 256;
#X obj 208 199 metro 10;
#X obj 208 141 loadbang;
#X obj 208 173 tgl 15 0 empty empty empty 17 7 0 10 -262144 -1 -1 1
1;
#X obj 261 462 ../../../assets/rgb-control;
#X obj 141 125 counter;
#X obj 140 78 r mouseClicked;
#X obj 140 101 select 1;
#X floatatom 140 202 5 0 0 0 - - -;
#X obj 141 149 % 3;
#X obj 140 174 + 1;
#X obj 142 281 gate 3;
#X msg 82 325 \$1 0 0;
#X msg 203 326 0 0 \$1;
#X msg 144 326 0 \$1 0;
#X obj 82 360 unpack f f f;
#X obj 264 402 s osc_amp;
#X obj 265 378 / 255;
#X obj 69 239 * 220;
#X obj 68 263 s osc_freq;
#X connect 3 0 15 1;
#X connect 3 0 21 0;
#X connect 4 0 3 0;
#X connect 5 0 4 0;
#X connect 6 0 7 0;
#X connect 7 0 5 0;
#X connect 9 0 13 0;
#X connect 10 0 11 0;
#X connect 11 0 9 0;
#X connect 12 0 15 0;
#X connect 13 0 14 0;
#X connect 13 0 22 0;
#X connect 14 0 12 0;
#X connect 15 0 16 0;
#X connect 15 1 18 0;
#X connect 15 2 17 0;
#X connect 16 0 19 0;
#X connect 17 0 19 0;
#X connect 18 0 19 0;
#X connect 19 0 0 0;
#X connect 19 1 1 0;
#X connect 19 2 2 0;
#X connect 21 0 20 0;
#X connect 22 0 23 0;
