#N canvas 1655 146 732 667 10;
#X floatatom 207 386 5 0 0 0 - - -;
#X obj 208 332 snapshot~;
#X obj 282 297 metro 10;
#X obj 283 269 tgl 15 0 empty empty empty 17 7 0 10 -262144 -1 -1 1
1;
#X obj 282 241 loadbang;
#X obj 207 297 osc~;
#X obj 470 475 ../../../assets/rgb-control;
#X obj 321 136 r mouseX;
#X obj 441 137 r width;
#X obj 332 164 expr ($f1/$f2)*3;
#X obj 205 84 counter;
#X obj 205 111 % 2;
#X obj 205 141 select 0 1;
#X obj 210 223 *;
#X msg 249 174 1;
#X msg 205 175 0;
#X obj 204 28 r keyPressed;
#X obj 6 570 s r_led;
#X obj 67 571 s g_led;
#X obj 126 571 s b_led;
#X obj 65 256 counter;
#X floatatom 64 333 5 0 0 0 - - -;
#X obj 65 280 % 3;
#X obj 64 305 + 1;
#X obj 66 453 gate 3;
#X msg 6 497 \$1 0 0;
#X msg 127 498 0 0 \$1;
#X msg 68 498 0 \$1 0;
#X obj 6 532 unpack f f f;
#X obj 145 208 loadbang;
#X obj 63 210 select 1;
#X obj 65 177 r mouseClicked;
#X obj 240 49 loadbang;
#X obj 207 359 expr (0.5+($f1/2))*255;
#X connect 0 0 24 1;
#X connect 1 0 33 0;
#X connect 2 0 1 0;
#X connect 3 0 2 0;
#X connect 4 0 3 0;
#X connect 5 0 1 0;
#X connect 7 0 9 0;
#X connect 8 0 9 1;
#X connect 9 0 13 0;
#X connect 10 0 11 0;
#X connect 11 0 12 0;
#X connect 12 0 15 0;
#X connect 12 1 14 0;
#X connect 13 0 5 0;
#X connect 14 0 13 1;
#X connect 14 0 13 0;
#X connect 15 0 13 1;
#X connect 15 0 13 0;
#X connect 16 0 10 0;
#X connect 20 0 22 0;
#X connect 21 0 24 0;
#X connect 22 0 23 0;
#X connect 23 0 21 0;
#X connect 24 0 25 0;
#X connect 24 1 27 0;
#X connect 24 2 26 0;
#X connect 25 0 28 0;
#X connect 26 0 28 0;
#X connect 27 0 28 0;
#X connect 28 0 17 0;
#X connect 28 1 18 0;
#X connect 28 2 19 0;
#X connect 29 0 20 0;
#X connect 30 0 20 0;
#X connect 31 0 30 0;
#X connect 32 0 10 0;
#X connect 33 0 0 0;
