#N canvas 1943 69 924 519 10;
#X obj 145 403 s r_led;
#X obj 206 404 s g_led;
#X obj 265 404 s b_led;
#X obj 488 480 ../../../assets/rgb-control;
#X obj 181 21 r mouseClicked;
#X obj 182 77 counter;
#X obj 182 48 select 1;
#X obj 182 104 % 2;
#X obj 183 132 select 0 1;
#X obj 11 195 r mouseX;
#X obj 114 194 r width;
#X obj 14 275 expr ($f1/$f2)*255;
#X obj 279 265 expr ($f1/$f2)*255;
#X obj 276 198 r mouseY;
#X obj 379 197 r height;
#X msg 180 189 0;
#X obj 12 322 *;
#X msg 223 190 1;
#X obj 282 301 *;
#X floatatom 58 317 5 0 0 0 - - -;
#X floatatom 326 299 5 0 0 0 - - -;
#X obj 12 410 s osc_amp;
#X obj 13 386 / 255;
#X obj 335 375 * 2;
#X obj 334 399 s osc_freq;
#X connect 4 0 6 0;
#X connect 5 0 7 0;
#X connect 6 0 5 0;
#X connect 7 0 8 0;
#X connect 8 0 15 0;
#X connect 8 1 17 0;
#X connect 9 0 11 0;
#X connect 10 0 11 1;
#X connect 11 0 16 0;
#X connect 11 0 19 0;
#X connect 12 0 18 0;
#X connect 12 0 20 0;
#X connect 13 0 12 0;
#X connect 14 0 12 1;
#X connect 15 0 0 0;
#X connect 15 0 1 0;
#X connect 15 0 2 0;
#X connect 15 0 16 1;
#X connect 15 0 18 1;
#X connect 15 0 22 0;
#X connect 15 0 23 0;
#X connect 16 0 0 0;
#X connect 16 0 22 0;
#X connect 17 0 16 1;
#X connect 17 0 18 1;
#X connect 18 0 1 0;
#X connect 18 0 2 0;
#X connect 20 0 23 0;
#X connect 22 0 21 0;
#X connect 23 0 24 0;
