#N canvas 1868 23 792 809 10;
#X obj 368 360 snapshot~;
#X obj 442 325 metro 10;
#X obj 443 297 tgl 15 0 empty empty empty 17 7 0 10 -262144 -1 -1 1
1;
#X obj 371 325 osc~;
#X obj 370 205 select 0 1;
#X msg 370 261 1;
#X msg 406 261 10;
#X obj 596 693 ../../../assets/rgb-control;
#X obj 440 263 loadbang;
#X floatatom 360 442 5 0 0 0 - - -;
#X obj 370 142 counter;
#X obj 370 166 % 2;
#X obj 370 82 r mouseClicked;
#X obj 370 111 select 1;
#X obj 446 112 loadbang;
#X obj 160 625 s r_led;
#X obj 221 626 s g_led;
#X obj 280 626 s b_led;
#X obj 219 311 counter;
#X floatatom 218 388 5 0 0 0 - - -;
#X obj 219 335 % 3;
#X obj 218 360 + 1;
#X obj 220 508 gate 3;
#X msg 160 552 \$1 0 0;
#X msg 281 553 0 0 \$1;
#X msg 222 553 0 \$1 0;
#X obj 160 587 unpack f f f;
#X obj 218 264 r keyPressed;
#X obj 299 263 loadbang;
#X obj 367 387 expr (0.5+($f1/2))*255;
#X obj 366 597 s osc_amp;
#X obj 367 573 / 255;
#X obj 146 389 s osc_freq;
#X obj 147 365 * 220;
#X connect 0 0 29 0;
#X connect 1 0 0 0;
#X connect 2 0 1 0;
#X connect 3 0 0 0;
#X connect 4 0 5 0;
#X connect 4 1 6 0;
#X connect 5 0 3 0;
#X connect 6 0 3 0;
#X connect 8 0 2 0;
#X connect 9 0 22 1;
#X connect 9 0 31 0;
#X connect 10 0 11 0;
#X connect 11 0 4 0;
#X connect 12 0 13 0;
#X connect 13 0 10 0;
#X connect 14 0 10 0;
#X connect 18 0 20 0;
#X connect 19 0 22 0;
#X connect 20 0 21 0;
#X connect 20 0 33 0;
#X connect 21 0 19 0;
#X connect 22 0 23 0;
#X connect 22 1 25 0;
#X connect 22 2 24 0;
#X connect 23 0 26 0;
#X connect 24 0 26 0;
#X connect 25 0 26 0;
#X connect 26 0 15 0;
#X connect 26 1 16 0;
#X connect 26 2 17 0;
#X connect 27 0 18 0;
#X connect 28 0 18 0;
#X connect 29 0 9 0;
#X connect 31 0 30 0;
#X connect 33 0 32 0;
