#N canvas 1646 108 475 560 10;
#X obj 136 408 ../../../assets/rgb-control;
#X obj 143 102 counter;
#X obj 143 126 % 3;
#X obj 142 55 r keyPressed;
#X obj 144 236 r mouseX;
#X obj 225 237 r width;
#X obj 144 294 s osc_amp;
#X obj 142 178 s osc_freq;
#X obj 143 154 * 220;
#X obj 235 55 loadbang;
#X obj 144 266 expr ($f1/$f2);
#X connect 1 0 2 0;
#X connect 2 0 8 0;
#X connect 3 0 1 0;
#X connect 4 0 10 0;
#X connect 5 0 10 1;
#X connect 8 0 7 0;
#X connect 9 0 1 0;
#X connect 10 0 6 0;
