#N canvas 1590 56 705 619 10;
#X obj 147 464 s r_led;
#X obj 208 465 s g_led;
#X obj 267 465 s b_led;
#X floatatom 209 408 5 0 0 0 - - -;
#X obj 209 344 snapshot~;
#X obj 284 309 metro 10;
#X obj 285 281 tgl 15 0 empty empty empty 17 7 0 10 -262144 -1 -1 1
1;
#X obj 284 253 loadbang;
#X obj 209 309 osc~;
#X obj 209 371 expr (0.5+($f1/2)) * 255;
#X obj 500 563 ../../../assets/rgb-control;
#X obj 314 152 r mouseX;
#X obj 407 155 r width;
#X obj 314 181 expr ($f1/$f2)*3;
#X obj 205 40 r mouseClicked;
#X obj 206 96 counter;
#X obj 206 67 select 1;
#X obj 206 123 % 2;
#X obj 206 153 select 0 1;
#X obj 209 255 *;
#X msg 246 187 1;
#X msg 206 187 0;
#X obj 344 467 s osc_amp;
#X obj 345 443 / 255;
#X connect 3 0 1 0;
#X connect 3 0 2 0;
#X connect 3 0 0 0;
#X connect 4 0 9 0;
#X connect 5 0 4 0;
#X connect 6 0 5 0;
#X connect 7 0 6 0;
#X connect 8 0 4 0;
#X connect 9 0 3 0;
#X connect 9 0 23 0;
#X connect 11 0 13 0;
#X connect 12 0 13 1;
#X connect 13 0 19 0;
#X connect 14 0 16 0;
#X connect 15 0 17 0;
#X connect 16 0 15 0;
#X connect 17 0 18 0;
#X connect 18 0 21 0;
#X connect 18 1 20 0;
#X connect 19 0 8 0;
#X connect 20 0 19 1;
#X connect 20 0 19 0;
#X connect 21 0 19 1;
#X connect 21 0 19 0;
#X connect 23 0 22 0;
