#N canvas 1590 56 574 557 10;
#X floatatom 168 346 5 0 0 0 - - -;
#X obj 148 267 select 0;
#X msg 144 292 0;
#X obj 227 262 metro;
#X obj 270 506 ../../../assets/rgb-control;
#X obj 170 70 r mouseClicked;
#X obj 170 98 select 1;
#X obj 171 126 bng 15 250 50 0 empty empty empty 17 7 0 10 -262144
-1 -1;
#X obj 291 61 r mouseX;
#X obj 411 62 r width;
#X obj 184 221 tgl 15 0 empty empty empty 17 7 0 10 -262144 -1 -1 0
1;
#X obj 302 89 expr ($f1/$f2)*1000;
#X msg 156 181 1;
#X obj 196 179 delay;
#X msg 206 202 0;
#X obj 165 406 s osc_amp;
#X obj 227 291 random 1000;
#X obj 166 382 / 1000;
#X connect 0 0 17 0;
#X connect 1 0 2 0;
#X connect 2 0 0 0;
#X connect 3 0 16 0;
#X connect 5 0 6 0;
#X connect 6 0 7 0;
#X connect 7 0 12 0;
#X connect 7 0 13 0;
#X connect 8 0 11 0;
#X connect 9 0 11 1;
#X connect 10 0 3 0;
#X connect 10 0 1 0;
#X connect 11 0 13 1;
#X connect 12 0 10 0;
#X connect 13 0 14 0;
#X connect 14 0 10 0;
#X connect 16 0 0 0;
#X connect 17 0 15 0;
