#N canvas 1651 120 611 665 10;
#X obj 172 444 s r_led;
#X obj 233 445 s g_led;
#X obj 292 445 s b_led;
#X floatatom 172 388 5 0 0 0 - - -;
#X obj 172 319 snapshot~;
#X obj 248 284 metro 10;
#X obj 248 210 tgl 15 0 empty empty empty 17 7 0 10 -262144 -1 -1 1
1;
#X obj 172 282 osc~;
#X obj 172 349 expr (0.5+($f1/2)) * 255;
#X obj 172 247 line;
#X msg 172 207 60 60000;
#X obj 172 145 loadbang;
#X obj 403 519 ../../../assets/rgb-control;
#X obj 349 446 s osc_amp;
#X obj 349 418 / 255;
#X connect 3 0 1 0;
#X connect 3 0 2 0;
#X connect 3 0 0 0;
#X connect 3 0 14 0;
#X connect 4 0 8 0;
#X connect 5 0 4 0;
#X connect 6 0 5 0;
#X connect 7 0 4 0;
#X connect 8 0 3 0;
#X connect 9 0 7 0;
#X connect 10 0 9 0;
#X connect 11 0 6 0;
#X connect 11 0 10 0;
#X connect 14 0 13 0;
