#N canvas 1879 61 475 560 10;
#X obj 82 325 s r_led;
#X obj 143 326 s g_led;
#X obj 202 326 s b_led;
#X floatatom 132 262 5 0 0 0 - - -;
#X obj 168 205 random 256;
#X obj 161 22 loadbang;
#X obj 158 143 tgl 15 0 empty empty empty 17 7 0 10 -262144 -1 -1 0
1;
#X obj 104 175 select 0;
#X msg 100 200 0;
#X obj 168 176 metro;
#X obj 161 53 tgl 15 0 empty empty empty 17 7 0 10 -262144 -1 -1 1
1;
#X obj 220 65 bng 15 250 50 0 empty empty empty 17 7 0 10 -262144 -1
-1;
#X obj 160 117 metro;
#X obj 220 84 random 2000;
#X obj 293 397 ../../../assets/rgb-control;
#X connect 3 0 1 0;
#X connect 3 0 2 0;
#X connect 3 0 0 0;
#X connect 4 0 3 0;
#X connect 5 0 10 0;
#X connect 6 0 7 0;
#X connect 6 0 9 0;
#X connect 6 0 11 0;
#X connect 7 0 8 0;
#X connect 8 0 3 0;
#X connect 9 0 4 0;
#X connect 10 0 12 0;
#X connect 11 0 13 0;
#X connect 12 0 6 0;
#X connect 13 0 12 1;
