#N canvas 2275 473 924 519 10;
#X floatatom 307 199 5 0 0 0 - - -;
#X obj 308 258 snapshot~;
#X obj 308 222 phasor~ 1;
#X obj 383 222 metro 10;
#X obj 384 194 tgl 15 0 empty empty empty 17 7 0 10 -262144 -1 -1 1
1;
#X obj 384 107 loadbang;
#X msg 306 151 -1;
#X obj 512 428 ../../../assets/rgb-control;
#X msg 273 149 1;
#X obj 274 50 counter;
#X obj 274 77 % 2;
#X obj 274 107 select 0 1;
#X obj 274 24 r keyPressed;
#X obj 227 417 s r_led;
#X obj 288 418 s g_led;
#X obj 347 418 s b_led;
#X obj 130 277 r mouseX;
#X obj 233 276 r width;
#X obj 133 307 expr ($f1/$f2)*255;
#X obj 423 318 expr ($f1/$f2)*255;
#X obj 417 276 r mouseY;
#X obj 520 275 r height;
#X obj 226 383 *;
#X obj 325 376 *;
#X connect 0 0 2 0;
#X connect 1 0 23 0;
#X connect 1 0 22 0;
#X connect 2 0 1 0;
#X connect 3 0 1 0;
#X connect 4 0 3 0;
#X connect 5 0 4 0;
#X connect 5 0 6 0;
#X connect 6 0 0 0;
#X connect 8 0 0 0;
#X connect 9 0 10 0;
#X connect 10 0 11 0;
#X connect 11 0 8 0;
#X connect 11 1 6 0;
#X connect 12 0 9 0;
#X connect 16 0 18 0;
#X connect 17 0 18 1;
#X connect 18 0 22 1;
#X connect 19 0 23 1;
#X connect 20 0 19 0;
#X connect 21 0 19 1;
#X connect 22 0 13 0;
#X connect 23 0 14 0;
#X connect 23 0 15 0;
