#N canvas 1495 23 801 395 10;
#X obj 562 303 ../../../assets/rgb-control;
#X obj 129 85 r mouseX;
#X obj 232 84 r width;
#X obj 387 82 r mouseY;
#X obj 490 81 r height;
#X obj 121 218 s osc_amp;
#X obj 406 213 s osc_freq;
#X obj 132 115 expr ($f1/$f2);
#X obj 393 124 expr ($f1/$f2)*660;
#X connect 1 0 7 0;
#X connect 2 0 7 1;
#X connect 3 0 8 0;
#X connect 4 0 8 1;
#X connect 7 0 5 0;
#X connect 8 0 6 0;
