#N canvas 1590 56 608 576 10;
#X obj 132 334 snapshot~;
#X obj 206 299 metro 10;
#X obj 207 271 tgl 15 0 empty empty empty 17 7 0 10 -262144 -1 -1 1
1;
#X obj 206 243 loadbang;
#X obj 131 299 osc~;
#X obj 394 477 ../../../assets/rgb-control;
#X obj 245 138 r mouseX;
#X obj 365 139 r width;
#X obj 256 166 expr ($f1/$f2)*3;
#X obj 128 30 r mouseClicked;
#X obj 129 86 counter;
#X obj 129 57 select 1;
#X obj 129 113 % 2;
#X obj 129 143 select 0 1;
#X obj 134 225 *;
#X msg 173 176 1;
#X msg 129 177 0;
#X obj 128 467 s osc_amp;
#X obj 131 361 expr (0.5+($f1/2));
#X connect 0 0 18 0;
#X connect 1 0 0 0;
#X connect 2 0 1 0;
#X connect 3 0 2 0;
#X connect 4 0 0 0;
#X connect 6 0 8 0;
#X connect 7 0 8 1;
#X connect 8 0 14 0;
#X connect 9 0 11 0;
#X connect 10 0 12 0;
#X connect 11 0 10 0;
#X connect 12 0 13 0;
#X connect 13 0 16 0;
#X connect 13 1 15 0;
#X connect 14 0 4 0;
#X connect 15 0 14 1;
#X connect 15 0 14 0;
#X connect 16 0 14 1;
#X connect 16 0 14 0;
#X connect 18 0 17 0;
