#N canvas 1743 241 604 339 10;
#X obj 195 195 s r_led;
#X obj 256 196 s g_led;
#X obj 315 196 s b_led;
#X floatatom 195 153 5 0 0 0 - - -;
#X obj 398 270 ../../../assets/rgb-control;
#X obj 195 89 r mouseX;
#X obj 300 89 r width;
#X obj 195 117 expr ($f1/$f2)*255;
#X obj 325 168 s osc_amp;
#X obj 326 144 / 255;
#X connect 3 0 1 0;
#X connect 3 0 2 0;
#X connect 3 0 0 0;
#X connect 5 0 7 0;
#X connect 6 0 7 1;
#X connect 7 0 3 0;
#X connect 7 0 9 0;
#X connect 9 0 8 0;
