#N canvas 2377 164 641 674 10;
#X obj 172 351 snapshot~;
#X obj 246 316 metro 10;
#X obj 247 288 tgl 15 0 empty empty empty 17 7 0 10 -262144 -1 -1 1
1;
#X obj 171 316 osc~;
#X obj 173 147 metro 2000;
#X obj 176 111 tgl 15 0 empty empty empty 17 7 0 10 -262144 -1 -1 1
1;
#X obj 173 171 tgl 15 0 empty empty empty 17 7 0 10 -262144 -1 -1 0
1;
#X obj 174 196 select 0 1;
#X msg 164 257 1;
#X msg 205 262 10;
#X obj 177 62 loadbang;
#X obj 403 519 ../../../assets/rgb-control;
#X obj 244 254 loadbang;
#X floatatom 164 433 5 0 0 0 - - -;
#X obj -12 430 r mouseX;
#X obj 91 429 r width;
#X obj 246 427 r mouseY;
#X obj 349 426 r height;
#X obj -7 511 *;
#X obj 221 514 *;
#X obj 171 378 expr (0.5+($f1/2));
#X obj -8 571 s osc_amp;
#X obj 234 569 s osc_freq;
#X obj -9 460 expr ($f1/$f2);
#X obj 252 469 expr ($f1/$f2);
#X obj 235 545 * 660;
#X connect 0 0 20 0;
#X connect 1 0 0 0;
#X connect 2 0 1 0;
#X connect 3 0 0 0;
#X connect 4 0 6 0;
#X connect 5 0 4 0;
#X connect 6 0 7 0;
#X connect 7 0 8 0;
#X connect 7 1 9 0;
#X connect 8 0 3 0;
#X connect 9 0 3 0;
#X connect 10 0 5 0;
#X connect 12 0 2 0;
#X connect 13 0 18 0;
#X connect 13 0 19 0;
#X connect 14 0 23 0;
#X connect 15 0 23 1;
#X connect 16 0 24 0;
#X connect 17 0 24 1;
#X connect 18 0 21 0;
#X connect 19 0 25 0;
#X connect 20 0 13 0;
#X connect 23 0 18 1;
#X connect 24 0 19 1;
#X connect 25 0 22 0;
