#N canvas 1590 56 611 665 10;
#X obj 172 471 s r_led;
#X obj 233 472 s g_led;
#X obj 292 472 s b_led;
#X floatatom 172 417 5 0 0 0 - - -;
#X obj 172 351 snapshot~;
#X obj 227 307 metro 10;
#X obj 172 231 loadbang;
#X obj 172 316 osc~;
#X obj 172 378 expr (0.5+($f1/2)) * 255;
#X obj 403 519 ../../../assets/rgb-control;
#X obj 355 470 s osc_amp;
#X obj 355 440 / 255;
#X msg 172 292 1;
#X connect 3 0 1 0;
#X connect 3 0 2 0;
#X connect 3 0 0 0;
#X connect 4 0 8 0;
#X connect 5 0 4 0;
#X connect 6 0 12 0;
#X connect 6 0 5 0;
#X connect 7 0 4 0;
#X connect 8 0 3 0;
#X connect 8 0 11 0;
#X connect 11 0 10 0;
#X connect 12 0 7 0;
