#N canvas 1646 108 475 560 10;
#X obj 137 274 tgl 15 0 empty empty empty 17 7 0 10 -262144 -1 -1 1
1;
#X obj 282 425 ../../../assets/rgb-control;
#X obj 141 125 counter;
#X obj 140 78 r mouseClicked;
#X obj 140 101 select 1;
#X obj 141 149 % 3;
#X obj 141 178 * 220;
#X obj 140 202 s osc_freq;
#X obj 250 80 loadbang;
#X floatatom 138 359 5 0 0 0 - - -;
#X obj 138 337 random 256;
#X obj 138 304 metro 10;
#X obj 138 246 loadbang;
#X obj 137 408 s osc_amp;
#X obj 138 384 / 255;
#X connect 0 0 11 0;
#X connect 2 0 5 0;
#X connect 3 0 4 0;
#X connect 4 0 2 0;
#X connect 5 0 6 0;
#X connect 6 0 7 0;
#X connect 8 0 2 0;
#X connect 9 0 14 0;
#X connect 10 0 9 0;
#X connect 11 0 10 0;
#X connect 12 0 0 0;
#X connect 14 0 13 0;
