#N canvas 2275 473 924 519 10;
#X obj 266 362 s r_led;
#X obj 326 362 s g_led;
#X obj 385 362 s b_led;
#X floatatom 266 311 5 0 0 0 - - -;
#X obj 266 257 snapshot~;
#X obj 376 210 metro 10;
#X obj 266 284 * 255;
#X obj 376 131 loadbang;
#X msg 312 187 -1;
#X obj 504 452 ../../../assets/rgb-control;
#X obj 266 18 r mouseClicked;
#X msg 266 187 1;
#X obj 266 74 counter;
#X obj 266 45 select 1;
#X obj 266 101 % 2;
#X obj 266 131 select 0 1;
#X obj 323 283 s osc_amp;
#X obj 266 222 phasor~;
#X connect 3 0 1 0;
#X connect 3 0 2 0;
#X connect 3 0 0 0;
#X connect 4 0 6 0;
#X connect 4 0 16 0;
#X connect 5 0 4 0;
#X connect 6 0 3 0;
#X connect 7 0 8 0;
#X connect 7 0 5 0;
#X connect 8 0 17 0;
#X connect 10 0 13 0;
#X connect 11 0 17 0;
#X connect 12 0 14 0;
#X connect 13 0 12 0;
#X connect 14 0 15 0;
#X connect 15 0 11 0;
#X connect 15 1 8 0;
#X connect 17 0 4 0;
