#N canvas 1646 108 475 560 10;
#X obj 145 325 s r_led;
#X obj 199 325 s g_led;
#X obj 253 326 s b_led;
#X floatatom 145 269 5 0 0 0 - - -;
#X obj 145 233 random 256;
#X obj 145 200 metro 10;
#X obj 145 164 loadbang;
#X obj 293 397 ../../../assets/rgb-control;
#X obj 305 326 s osc_amp;
#X obj 305 298 / 255;
#X connect 3 0 1 0;
#X connect 3 0 2 0;
#X connect 3 0 0 0;
#X connect 3 0 9 0;
#X connect 4 0 3 0;
#X connect 5 0 4 0;
#X connect 6 0 5 0;
#X connect 9 0 8 0;
