#N canvas 1813 194 727 450 10;
#X obj 280 289 s r_led;
#X obj 341 290 s g_led;
#X obj 400 290 s b_led;
#X floatatom 280 241 5 0 0 0 - - -;
#X obj 280 181 snapshot~;
#X obj 354 146 metro 10;
#X obj 280 214 * 255;
#X obj 280 81 loadbang;
#X obj 519 409 ../../../assets/rgb-control;
#X obj 355 207 s osc_amp;
#X msg 280 114 1;
#X obj 280 146 phasor~;
#X connect 3 0 1 0;
#X connect 3 0 2 0;
#X connect 3 0 0 0;
#X connect 4 0 6 0;
#X connect 4 0 9 0;
#X connect 5 0 4 0;
#X connect 6 0 3 0;
#X connect 7 0 10 0;
#X connect 7 0 5 0;
#X connect 10 0 11 0;
#X connect 11 0 4 0;
