#N canvas 1845 229 628 431 10;
#X obj 115 305 s r_led;
#X obj 176 306 s g_led;
#X obj 235 306 s b_led;
#X floatatom 149 268 5 0 255 0 - - -;
#X floatatom 208 274 5 0 255 0 - - -;
#X floatatom 264 275 5 0 255 0 - - -;
#X floatatom 204 237 5 0 0 0 - - -;
#X floatatom 202 125 5 0 0 0 - - -;
#X obj 204 183 snapshot~;
#X obj 203 148 phasor~ 1;
#X floatatom 263 244 5 0 0 0 - - -;
#X obj 278 148 metro 10;
#X obj 279 120 tgl 15 0 empty empty empty 17 7 0 10 -262144 -1 -1 1
1;
#X obj 203 210 * 255;
#X obj 279 33 loadbang;
#X msg 201 77 1;
#X obj 431 378 ../../../assets/rgb-control;
#X obj 332 260 s osc_amp;
#X connect 3 0 0 0;
#X connect 4 0 1 0;
#X connect 5 0 2 0;
#X connect 6 0 1 0;
#X connect 6 0 2 0;
#X connect 6 0 0 0;
#X connect 7 0 9 0;
#X connect 8 0 13 0;
#X connect 8 0 17 0;
#X connect 9 0 8 0;
#X connect 11 0 8 0;
#X connect 12 0 11 0;
#X connect 13 0 6 0;
#X connect 14 0 12 0;
#X connect 14 0 15 0;
#X connect 15 0 7 0;
