#N canvas 1577 497 924 519 10;
#X floatatom 307 199 5 0 0 0 - - -;
#X obj 309 257 snapshot~;
#X obj 308 222 phasor~ 1;
#X obj 383 222 metro 10;
#X obj 384 194 tgl 15 0 empty empty empty 17 7 0 10 -262144 -1 -1 1
1;
#X obj 384 107 loadbang;
#X msg 306 151 -1;
#X obj 512 428 ../../../assets/rgb-control;
#X obj 273 -6 r mouseClicked;
#X msg 273 149 1;
#X obj 274 50 counter;
#X obj 274 21 select 1;
#X obj 274 77 % 2;
#X obj 274 107 select 0 1;
#X floatatom 232 82 5 0 0 0 - - -;
#X obj 309 314 s osc_amp;
#X connect 0 0 2 0;
#X connect 1 0 15 0;
#X connect 2 0 1 0;
#X connect 3 0 1 0;
#X connect 4 0 3 0;
#X connect 5 0 4 0;
#X connect 5 0 6 0;
#X connect 6 0 0 0;
#X connect 8 0 11 0;
#X connect 9 0 0 0;
#X connect 10 0 12 0;
#X connect 10 0 14 0;
#X connect 11 0 10 0;
#X connect 12 0 13 0;
#X connect 13 0 9 0;
#X connect 13 1 6 0;
